<svg width="200" height="200" fill="none" xmlns="http://www.w3.org/2000/svg"><path d="M95 189.3a5.93 5.93 0 0 0 5.2 0l70.4-41a1.603 1.603 0 0 0 0-3l-64.7-29.5a5.932 5.932 0 0 0-5.2 0l-70.4 33.1a1.596 1.596 0 0 0-1.043 1.5 1.6 1.6 0 0 0 1.043 1.5L95 189.3z" fill="#000"/><path d="M97.6 190.15a5.627 5.627 0 0 1-2.72-.63l-64.71-37.4a1.844 1.844 0 0 1-1.169-1.72 1.848 1.848 0 0 1 1.17-1.72l70.409-33.11a6.2 6.2 0 0 1 5.43 0l64.68 29.49a1.852 1.852 0 0 1 .858 2.771c-.211.308-.51.545-.858.679l-70.39 41a5.685 5.685 0 0 1-2.7.64zm-2.48-1.07a5.7 5.7 0 0 0 5 0l70.39-41a1.348 1.348 0 0 0 0-2.56L105.8 116a5.697 5.697 0 0 0-5 0l-70.39 33.13a1.559 1.559 0 0 0-.91 1.27 1.57 1.57 0 0 0 .92 1.28l64.7 37.4z" fill="#000"/><path d="M100.4 184.3a12.84 12.84 0 0 1 0 2c0 .5-.4 1-1.1 1.4a5.74 5.74 0 0 1-5.4 0 1.934 1.934 0 0 1-1.1-1.6v-1.9h7.6v.1z" fill="#FCACA9"/><path d="M96.6 188.63a5.634 5.634 0 0 1-2.83-.71 2.2 2.2 0 0 1-1.22-1.82v-1.9a.251.251 0 0 1 .25-.25h7.6c.066 0 .13.027.177.073a.255.255 0 0 1 .073.177v.09c.056.682.056 1.368 0 2.05 0 .55-.44 1.12-1.23 1.58a5.596 5.596 0 0 1-2.82.71zm-3.55-4.18v1.65a1.687 1.687 0 0 0 1 1.38 5.516 5.516 0 0 0 5.15 0c.62-.36 1-.79 1-1.19.05-.615.05-1.234 0-1.85l-7.15.01z" fill="#000"/><path d="M170.6 143.3c.053.666.053 1.335 0 2 0 .5-.4 1-1.1 1.4a5.739 5.739 0 0 1-5.4 0 1.94 1.94 0 0 1-1.1-1.6v-1.9h7.6v.1z" fill="#FCACA9"/><path d="M166.8 147.63a5.636 5.636 0 0 1-2.83-.71 2.197 2.197 0 0 1-1.22-1.82v-1.9a.249.249 0 0 1 .25-.2h7.6a.25.25 0 0 1 .25.25v.09a12.31 12.31 0 0 1 0 2.05c0 .55-.44 1.12-1.23 1.58a5.595 5.595 0 0 1-2.82.66zm-3.55-4.18v1.65a1.689 1.689 0 0 0 1 1.38 5.49 5.49 0 0 0 5.15 0c.63-.36 1-.79 1-1.19.05-.616.05-1.234 0-1.85l-7.15.01z" fill="#000"/><path d="M39.3 149.3a12.67 12.67 0 0 1 0 2c0 .5-.4 1-1.1 1.4a5.74 5.74 0 0 1-5.4 0 1.933 1.933 0 0 1-1.1-1.6v-1.9h7.6v.1z" fill="#FCACA9"/><path d="M35.5 153.63a5.634 5.634 0 0 1-2.83-.71 2.2 2.2 0 0 1-1.22-1.82v-1.9a.251.251 0 0 1 .25-.25h7.6a.251.251 0 0 1 .25.25v.09c.057.682.057 1.368 0 2.05 0 .55-.44 1.12-1.23 1.58a5.596 5.596 0 0 1-2.82.71zm-3.5-4.18v1.65a1.687 1.687 0 0 0 1 1.38 5.492 5.492 0 0 0 5.15 0c.62-.36 1-.79 1-1.19.05-.615.05-1.234 0-1.85l-7.15.01z" fill="#000"/><path d="m98.2 185 74.3-43.9a1.997 1.997 0 0 1-.9 1.9l-74.3 43.9a2.192 2.192 0 0 0 .9-1.9z" fill="#3D3BFF"/><path d="M97.3 187.15a.251.251 0 0 1-.22-.12.249.249 0 0 1 .09-.34A1.997 1.997 0 0 0 98 185a.24.24 0 0 1 .12-.21l74.3-43.91a.286.286 0 0 1 .25 0 .259.259 0 0 1 .13.22 2.192 2.192 0 0 1-1 2.12l-74.28 43.9a.307.307 0 0 1-.22.03zm1.15-2a3.27 3.27 0 0 1-.18.9l73.2-43.25a1.525 1.525 0 0 0 .75-1.23l-73.77 43.58z" fill="#000"/><path d="m107.8 76-4.6 2.7-67 39.6-2.7 1.6a2.004 2.004 0 0 0-2.1-.2l3.5-2.1 67-39.6 3.8-2.2a2.32 2.32 0 0 1 2.1.2z" fill="#fff"/><path d="M33.5 120.15a.193.193 0 0 1-.13 0 1.787 1.787 0 0 0-1.84-.19.26.26 0 0 1-.376-.18.24.24 0 0 1 .116-.25l3.5-2.1 67-39.61 3.81-2.2a2.49 2.49 0 0 1 2.32.19c.043.02.079.05.105.09a.256.256 0 0 1 .045.13.268.268 0 0 1-.12.23l-4.6 2.7-69.7 41.2a.301.301 0 0 1-.13-.01zm-.91-.87c.32.056.628.168.91.33l2.57-1.53 67-39.6 4.16-2.48a1.69 1.69 0 0 0-1.4 0L102 78.22l-67 39.59-2.41 1.47z" fill="#000"/><path d="M169.9 116.3a5.125 5.125 0 0 0-1.9-2.4L114.7 83a1.69 1.69 0 0 0-1.5-.2l-74.3 43.9a1.436 1.436 0 0 1 1.5.2l53.4 30.8a5.122 5.122 0 0 1 1.9 2.4c.194.406.296.85.3 1.3l-.2 3.4c0 .7-.2 1.2-.6 1.4l74.3-43.9c.4-.2.6-.7.6-1.4l.2-3.4a8.445 8.445 0 0 0-.4-1.2z" fill="#fff"/><path d="M95.2 166.45a.248.248 0 0 1-.127-.036.252.252 0 0 1-.093-.094.251.251 0 0 1 .09-.33l.09-.06a1.343 1.343 0 0 0 .39-1.13l.2-3.41a2.793 2.793 0 0 0-.27-1.18 5.001 5.001 0 0 0-1.81-2.3l-53.4-30.79a1.21 1.21 0 0 0-1.26-.2.248.248 0 0 1-.185.016.247.247 0 0 1-.145-.116.251.251 0 0 1 .09-.33l74.3-43.91a1.882 1.882 0 0 1 1.74.2l53.31 30.9a5.447 5.447 0 0 1 2 2.52c.135.297.242.605.32.92 0 .107.03.207.09.3a.272.272 0 0 1 0 .09l-.2 3.41c0 1-.4 1.44-.74 1.6l-74.15 43.83-.13.07a.195.195 0 0 1-.11.03zm-55.28-40.06c.22.069.43.17.62.3l53.38 30.79a5.402 5.402 0 0 1 2 2.53c.209.434.318.909.32 1.39l-.2 3.41c.003.212-.017.423-.06.63l73.38-43.36c.32-.15.48-.57.48-1.18l.2-3.37a1.792 1.792 0 0 1-.08-.28 6.411 6.411 0 0 0-.29-.84 5.008 5.008 0 0 0-1.8-2.28l-53.29-30.91a1.46 1.46 0 0 0-1.27-.2l-73.39 43.37z" fill="#000"/><path d="m172.7 116.9-.2 24.1-74.3 44 .2-24.2a3.915 3.915 0 0 0-.4-1.8l74.3-43.9c.265.563.401 1.177.4 1.8z" fill="#fff"/><path d="M98.2 185.25c-.04.01-.08.01-.12 0A.264.264 0 0 1 98 185l.2-24.2a3.718 3.718 0 0 0-.37-1.69.239.239 0 0 1 .09-.32l74.3-43.91a.266.266 0 0 1 .2 0 .234.234 0 0 1 .15.13c.285.596.432 1.249.43 1.91l-.2 24.1a.242.242 0 0 1-.12.21l-74.3 44a.245.245 0 0 1-.088.029.239.239 0 0 1-.092-.009zm.12-26.15c.225.538.338 1.116.33 1.7l-.2 23.76 73.8-43.7.2-24c0-.493-.092-.981-.27-1.44L98.32 159.1z" fill="#000"/><path d="M33.4 119.9 107.8 76l62 35.8-74.3 43.9-62.1-35.8z" fill="#fff"/><path d="M95.5 156c-.04.01-.08.01-.12 0l-62.11-35.8a.273.273 0 0 1-.12-.22.241.241 0 0 1 .12-.21l74.4-43.91a.283.283 0 0 1 .25 0l62 35.8a.26.26 0 0 1 .13.22.246.246 0 0 1-.12.21L95.63 156a.316.316 0 0 1-.13 0zm-61.6-36 61.6 35.51 73.8-43.61-61.5-35.61L33.9 120z" fill="#000"/><path d="M95.4 155.7a6.19 6.19 0 0 1 2.9 5.1l-.2 24.1c0 1.9-1.3 2.6-3 1.7l-62-35.8a6.192 6.192 0 0 1-2.9-5.1l.2-24.1c0-1.9 1.3-2.6 3-1.7l62 35.8z" fill="#fff"/><path d="M96.47 187.24a3.2 3.2 0 0 1-1.49-.42L33 151a6.468 6.468 0 0 1-3-5.33l.2-24.09a2.329 2.329 0 0 1 .94-2.09 2.468 2.468 0 0 1 2.43.17l62 35.8a6.48 6.48 0 0 1 3 5.33l-.2 24.09a2.33 2.33 0 0 1-.94 2.09 1.78 1.78 0 0 1-.96.27zM32 119.76a1.316 1.316 0 0 0-.69.18 1.83 1.83 0 0 0-.7 1.66l-.2 24.1a5.91 5.91 0 0 0 2.77 4.88l62 35.8a1.943 1.943 0 0 0 1.92.18 1.827 1.827 0 0 0 .7-1.66l.2-24.1a5.91 5.91 0 0 0-2.77-4.88l-62-35.8a2.627 2.627 0 0 0-1.23-.36z" fill="#000"/><path d="m95.4 155.7 74.3-43.9-74.3 43.9z" fill="#fff"/><path d="M95.4 156a.252.252 0 0 1-.22-.12.31.31 0 0 1 0-.13.243.243 0 0 1 .12-.21l74.3-43.91a.256.256 0 0 1 .193-.026.257.257 0 0 1 .157.116.316.316 0 0 1 0 .13.235.235 0 0 1-.12.21l-74.3 43.91a.324.324 0 0 1-.13.03z" fill="#000"/><path d="m95.5 155.7 74.3-43.9a6.666 6.666 0 0 1 2.6 3.3L98 159a7 7 0 0 0-2.5-3.3z" fill="#3D3BFF"/><path d="M98 159.25h-.08a.242.242 0 0 1-.15-.15 6.71 6.71 0 0 0-2.4-3.18.25.25 0 0 1-.12-.21.24.24 0 0 1 .12-.21l74.3-43.91a.27.27 0 0 1 .26 0 7.004 7.004 0 0 1 2.71 3.43.24.24 0 0 1-.11.29l-74.4 43.9a.216.216 0 0 1-.13.04zm-2-3.53a7.3 7.3 0 0 1 2.16 2.92l74-43.65a6.468 6.468 0 0 0-2.3-2.9L96 155.72zM92.7 170.6l-.1-.5c0 .8-.6 1.2-1.3.7l-32.2-18.6a2.883 2.883 0 0 1-1.3-2.3l.1.5c0-.8.6-1.2 1.3-.7l4.9 2.8 4.7 2.7 1.1.6 7.1 4.1 1 .6 3.5 2 9.9 5.7a3.62 3.62 0 0 1 1.3 2.4z" fill="#000"/><path d="M91.9 171.27a1.3 1.3 0 0 1-.75-.27L59 152.42a3.157 3.157 0 0 1-1.43-2.52.25.25 0 0 1 .23-.25h.07a.893.893 0 0 1 .35-.32 1.092 1.092 0 0 1 1.15.17L70 155.58 91.52 168a3.875 3.875 0 0 1 1.48 2.6.25.25 0 0 1-.23.25h-.07a.892.892 0 0 1-.35.32.794.794 0 0 1-.45.1zm-33.76-20.79a2.57 2.57 0 0 0 1.08 1.5l32.21 18.6a.622.622 0 0 0 .64.15.67.67 0 0 0 .28-.63.13.13 0 0 1 0-.06 3.867 3.867 0 0 0-1.12-1.65l-32.15-18.47c-.26-.19-.48-.24-.65-.15a.67.67 0 0 0-.28.63.19.19 0 0 1-.01.08z" fill="#000"/><path d="M92.4 167.1a3.89 3.89 0 0 1 1.8 3.1l-.1 7.1c0 1.1-.8 1.6-1.8 1l-37.4-21.6a3.899 3.899 0 0 1-1.8-3.1l.1-7.1c0-1.1.8-1.6 1.8-1l37.4 21.6zm-1.1 4.2a3.001 3.001 0 0 0-1.4-2.4l-32.5-18.8c-.8-.5-1.5-.1-1.5.9a3.001 3.001 0 0 0 1.4 2.4l32.5 18.8c.9.4 1.5 0 1.5-.9z" fill="#3D3BFF"/><path d="M93.11 178.81a1.851 1.851 0 0 1-.94-.3l-37.4-21.59a4.157 4.157 0 0 1-1.92-3.32l.1-7.1a1.332 1.332 0 0 1 1.449-1.524c.27.028.525.137.731.314l37.39 21.59a4.12 4.12 0 0 1 1.92 3.31l-.1 7.1a1.476 1.476 0 0 1-.66 1.36c-.173.102-.37.157-.57.16zm-38.92-33.32a.666.666 0 0 0-.34.09.993.993 0 0 0-.4.92l-.1 7.1a3.66 3.66 0 0 0 1.65 2.89l37.39 21.59a1 1 0 0 0 1 .14 1.002 1.002 0 0 0 .4-.92l.1-7.1a3.63 3.63 0 0 0-1.68-2.88l-37.39-21.6a1.39 1.39 0 0 0-.63-.23zm36.25 27.11a1.786 1.786 0 0 1-.74-.17l-32.53-18.81a3.29 3.29 0 0 1-1.52-2.62 1.338 1.338 0 0 1 .6-1.24 1.234 1.234 0 0 1 1.28.13L90 168.68a3.277 3.277 0 0 1 1.53 2.62 1.3 1.3 0 0 1-.51 1.14 1.088 1.088 0 0 1-.58.16zm-33.7-22.47a.426.426 0 0 0-.25.07.86.86 0 0 0-.34.8 2.81 2.81 0 0 0 1.28 2.19L89.92 172a.904.904 0 0 0 .84 0 .812.812 0 0 0 .29-.72 2.81 2.81 0 0 0-1.28-2.19l-32.5-18.79a.994.994 0 0 0-.53-.17z" fill="#000"/><path d="m76 165.2-.2-.2-2.1-1.2-.8-.4-.2-.1-1.5-.9-.2-.1-1-.6-1-.6c-.2-.1-.3 0-.3.2v2c0 .2.1.3.3.4l6.9 4c.2.1.3 0 .3-.2v-1.9c-.1-.2-.1-.3-.2-.4z" fill="#fff"/><path d="M76 168a.523.523 0 0 1-.25-.07l-6.92-4a.66.66 0 0 1-.42-.62v-2a.476.476 0 0 1 .2-.43.444.444 0 0 1 .46 0l3.9 2.3.8.4 2.11 1.2h.06l.09.1c.043.008.084.03.114.063.03.032.05.073.056.117a.902.902 0 0 1 .11.22l.07.17a.2.2 0 0 1 0 .11v1.9a.483.483 0 0 1-.2.43.362.362 0 0 1-.18.11zm-7-6.64v1.94c0 .06 0 .1.16.18l6.84 4v-1.78l-.07-.16c0-.08 0-.1-.06-.12l-.17-.18-2.12-1.24-1-.5-3.58-2.14z" fill="#000"/><path d="m75 165.3-.2-.2-1.5-.9-.5-.3-.1-.1-1.1-.6-.2-.1-.7-.4-.8-.4c-.1-.1-.2 0-.2.1v.8c0 .1.1.2.2.3l4.9 2.9c.1.1.2 0 .2-.1v-.7c.1-.2 0-.3 0-.3z" fill="#fff"/><path d="M74.89 166.69a.404.404 0 0 1-.27-.11l-4.85-2.87a.721.721 0 0 1-.32-.51v-.8a.378.378 0 0 1 .23-.36.358.358 0 0 1 .36.05l.77.39 2 1.1h.06l.1.1 2 1.16.13.13a.258.258 0 0 1 .19.22.508.508 0 0 1 0 .42v.65a.402.402 0 0 1-.23.37l-.17.06zM70 162.6v.6l.13.12 4.67 2.76v-.48a.2.2 0 0 1 0-.11.11.11 0 0 1 0-.09l-.13-.12-2-1.16-.12-.12-2.55-1.4zM163.8 116.8l-62.5 36.3a5.726 5.726 0 0 1-5.1 0l-60.1-34.7-1.2-.7 67-39.6 1.2.7 60.7 35c1.4.8 1.4 2.1 0 3z" fill="#000"/><path d="M98.75 154a5.489 5.489 0 0 1-2.67-.63l-61.31-35.4a.27.27 0 0 1-.12-.22.24.24 0 0 1 .12-.21l67-39.61a.298.298 0 0 1 .26 0l1.2.7 60.69 35a2.002 2.002 0 0 1 1.18 1.64c-.021.375-.14.737-.345 1.052-.206.314-.49.568-.825.738l-62.5 36.3a5.556 5.556 0 0 1-2.68.64zm-63.36-36.3.84.48 60.1 34.7a5.51 5.51 0 0 0 4.85 0l62.49-36.29a1.711 1.711 0 0 0 .93-1.35 1.543 1.543 0 0 0-.92-1.22L101.9 78.39 35.39 117.7z" fill="#000"/><path d="m125.1 131.1 41.7-24.5a2.14 2.14 0 0 1-.8 1.9L124.3 133a2.269 2.269 0 0 0 .8-1.9z" fill="#fff"/><path d="M124.3 133.25a.25.25 0 0 1-.16-.45 1.993 1.993 0 0 0 .71-1.7.274.274 0 0 1 .12-.22l41.7-24.5a.283.283 0 0 1 .25 0 .254.254 0 0 1 .094.093.27.27 0 0 1 .036.127c.039.401-.024.805-.185 1.175a2.37 2.37 0 0 1-.735.935l-41.7 24.51a.31.31 0 0 1-.13.03zm1-2a3.154 3.154 0 0 1-.18 1l40.7-23.92a1.626 1.626 0 0 0 .65-1.23l-41.17 24.15z" fill="#000"/><path d="m59.2 20.4 41.7-12a2.002 2.002 0 0 1 2.1.2l-41.7 12a2 2 0 0 0-2.1-.2z" fill="#fff"/><path d="M61.3 20.85a.201.201 0 0 1-.13 0 2.06 2.06 0 0 0-1.23-.36l-.67.19a.24.24 0 0 1-.3-.15.23.23 0 0 1 .12-.31 2.15 2.15 0 0 1 .76-.23L100.8 8.17a2.289 2.289 0 0 1 2.33.22.242.242 0 0 1 .097.102c.021.043.029.091.023.138a.283.283 0 0 1-.18.21l-41.7 12-.07.01zm-.32-.7c.124.052.244.113.36.18l41-11.79a1.567 1.567 0 0 0-1.26.07h-.06L60.98 20.15z" fill="#000"/><path d="m61.3 20.6 41.7-12 61.1 35.3-41.7 12-61.1-35.3z" fill="#fff"/><path d="M122.4 56.15a.241.241 0 0 1-.12 0L61.17 20.82a.27.27 0 0 1-.12-.25.25.25 0 0 1 .18-.21l41.7-12a.25.25 0 0 1 .19 0l61.1 35.3a.245.245 0 0 1 .129.247.247.247 0 0 1-.179.213l-41.7 12-.07.03zM61.93 20.68l60.5 35 41-11.81-60.43-35-41.07 11.81z" fill="#000"/><path d="M122.4 55.9a6.416 6.416 0 0 1 2.9 5l-.2 70.2c0 1.9-1.3 2.6-2.9 1.7L61.1 97.5a6.41 6.41 0 0 1-2.9-5l.2-70.2c0-1.9 1.3-2.6 2.9-1.7l61.1 35.3z" fill="#fff"/><path d="M123.5 133.44a2.946 2.946 0 0 1-1.42-.42L61 97.72a6.71 6.71 0 0 1-3-5.22l.2-70.2a2.29 2.29 0 0 1 1-2.11 2.32 2.32 0 0 1 2.31.19l61.11 35.3a6.743 6.743 0 0 1 3 5.22l-.2 70.2a2.288 2.288 0 0 1-1 2.11 1.825 1.825 0 0 1-.92.23zM60 20.46a1.27 1.27 0 0 0-.64.16 1.84 1.84 0 0 0-.71 1.68l-.2 70.2a6.13 6.13 0 0 0 2.77 4.78l61.11 35.3c.256.189.557.307.873.343a1.81 1.81 0 0 0 .927-.143 1.814 1.814 0 0 0 .72-1.68l.2-70.2a6.126 6.126 0 0 0-2.77-4.78l-61.11-35.3a2.41 2.41 0 0 0-1.17-.36z" fill="#000"/><path d="m122.4 55.9 41.7-12-41.7 12z" fill="#fff"/><path d="M122.4 56.15a.25.25 0 0 1-.24-.18.165.165 0 0 1 0-.07.248.248 0 0 1 .18-.24l41.7-12a.249.249 0 0 1 .31.17.165.165 0 0 1 0 .07.253.253 0 0 1-.18.24l-41.7 12-.07.01z" fill="#000"/><path d="m122.4 55.9 41.7-12a5.78 5.78 0 0 1 2.5 3.2l-41.7 12a6.238 6.238 0 0 0-2.5-3.2z" fill="#fff"/><path d="M124.9 59.35a.249.249 0 0 1-.23-.16 5.91 5.91 0 0 0-2.39-3.07.263.263 0 0 1-.13-.25.25.25 0 0 1 .18-.21l41.7-12a.25.25 0 0 1 .19 0 6 6 0 0 1 2.62 3.34.25.25 0 0 1-.17.31l-41.7 12-.07.04zM123 56a6.869 6.869 0 0 1 2 2.81l41.23-11.87a5.567 5.567 0 0 0-2.21-2.76L123 56z" fill="#000"/><path d="m167 48.9-.2 57.7-41.7 24.5.2-70.2a5.652 5.652 0 0 0-.3-1.8l41.7-12c.148.59.249 1.192.3 1.8z" fill="#fff"/><path d="M125.1 131.35a.244.244 0 0 1-.12 0 .256.256 0 0 1-.13-.22l.2-70.2a5.47 5.47 0 0 0-.29-1.72.266.266 0 0 1 0-.2.259.259 0 0 1 .15-.12l41.7-12a.237.237 0 0 1 .2 0 .26.26 0 0 1 .12.17c0 .2.07.39.12.59.106.409.166.828.18 1.25l-.2 57.7a.274.274 0 0 1-.12.22l-41.7 24.5a.306.306 0 0 1-.11.03zm.21-72.08c.158.529.239 1.078.24 1.63l-.2 69.76 41.2-24.2.2-57.56a5.168 5.168 0 0 0-.17-1.14c0-.12-.05-.23-.08-.34l-41.19 11.85z" fill="#000"/><path d="M37.2 111.7 103.7 73l-66.5 38.7z" fill="#fff"/><path d="M37.2 112a.252.252 0 0 1-.22-.12.31.31 0 0 1 0-.13.248.248 0 0 1 .12-.22l66.5-38.7a.26.26 0 0 1 .35.09.316.316 0 0 1 0 .13.247.247 0 0 1-.12.22l-66.38 38.57a.244.244 0 0 1-.1.088.246.246 0 0 1-.13.022l-.02.05z" fill="#000"/><path d="m46.9 117.3-9.7-5.6A6 6 0 0 1 35 109a4.002 4.002 0 0 1-.3-1.5l.2-62a1.871 1.871 0 0 1 .7-1.6l29.9-17.6a1.87 1.87 0 0 0-.7 1.6l30.6 117.5-48.5-28.1z" fill="#3D3BFF"/><path d="M95.4 145.65a.285.285 0 0 1-.13 0l-48.5-28.1-9.69-5.6a6.217 6.217 0 0 1-2.31-2.82 4.348 4.348 0 0 1-.32-1.6l.2-62a2.1 2.1 0 0 1 .8-1.8l29.92-17.65a.27.27 0 0 1 .34.08.25.25 0 0 1-.06.34 1.63 1.63 0 0 0-.6 1.37l30.59 117.47a.241.241 0 0 1-.09.26.262.262 0 0 1-.15.05zM64.67 27.08l-28.94 17a1.622 1.622 0 0 0-.58 1.38l-.2 62c.001.484.096.963.28 1.41a5.676 5.676 0 0 0 2.09 2.57l9.7 5.6 48 27.8L64.56 28a.13.13 0 0 1 0-.06 2.49 2.49 0 0 1 .11-.86z" fill="#000"/><path d="m98.2 148.6 29.9-17.6a2.002 2.002 0 0 1-.9 1.9l-29.9 17.6a2.058 2.058 0 0 0 .9-1.9z" fill="#fff"/><path d="M97.3 150.75a.248.248 0 0 1-.22-.12.248.248 0 0 1 .09-.34 1.796 1.796 0 0 0 .83-1.69.268.268 0 0 1 .12-.22l29.9-17.6a.286.286 0 0 1 .25 0 .262.262 0 0 1 .13.22 2.192 2.192 0 0 1-1 2.12l-29.88 17.6a.307.307 0 0 1-.22.03zm1.15-2c-.01.303-.064.603-.16.89l28.78-16.95a1.485 1.485 0 0 0 .75-1.22l-29.37 17.28z" fill="#000"/><path d="m31.3 36.3 29.9-17.6a2 2 0 0 1 2.1.2L33.4 36.5a2 2 0 0 0-2.1-.2z" fill="#fff"/><path d="M33.4 36.75a.2.2 0 0 1-.13 0 1.8 1.8 0 0 0-1.86-.19.25.25 0 0 1-.33-.1.27.27 0 0 1 .09-.34l29.9-17.6a2.3 2.3 0 0 1 2.36.21.24.24 0 0 1 .12.21.27.27 0 0 1-.12.22l-29.9 17.6a.31.31 0 0 1-.13-.01zm-.89-.87c.314.058.615.17.89.33l29.39-17.3a1.69 1.69 0 0 0-1.46 0L32.51 35.88z" fill="#000"/><path d="M125.6 59.1a5.123 5.123 0 0 0-1.9-2.4L70.3 25.9a1.691 1.691 0 0 0-1.5-.2l-30 17.7a1.43 1.43 0 0 1 1.5.2l53.4 30.8a5.12 5.12 0 0 1 1.9 2.4c.194.406.296.85.3 1.3l-.2 61.3c0 .7-.2 1.2-.6 1.4l29.9-17.6c.4-.2.6-.7.6-1.4l.2-61.3a6.82 6.82 0 0 0-.2-1.4z" fill="#fff"/><path d="M95.1 141.05a.258.258 0 0 1-.22-.13.27.27 0 0 1 .09-.34l.09-.05a1.339 1.339 0 0 0 .39-1.13l.2-61.3c-.007-.411-.1-.816-.27-1.19a5.001 5.001 0 0 0-1.81-2.3l-53.4-30.79a1.21 1.21 0 0 0-1.26-.2.25.25 0 0 1-.33-.1.27.27 0 0 1 .09-.34l30-17.7a1.881 1.881 0 0 1 1.74.2l53.42 30.8a5.447 5.447 0 0 1 2 2.53v.21c.095.407.149.822.16 1.24l-.2 61.3c0 1-.4 1.46-.74 1.62L95.33 141l-.12.07a.2.2 0 0 1-.11-.02zm-55.28-98c.22.069.43.17.62.3l53.39 30.83a5.451 5.451 0 0 1 2 2.53c.21.434.318.908.32 1.39L96 139.4c.003.218-.017.436-.06.65l29-17.07c.32-.15.48-.57.48-1.18l.2-61.3a5.477 5.477 0 0 0-.15-1.14v-.19a5 5 0 0 0-1.79-2.26l-53.5-30.79a1.461 1.461 0 0 0-1.27-.2L39.82 43.05z" fill="#000"/><path d="m95.9 78.1-.2 61.3c0 1.4-1 1.9-2.2 1.2l-53.4-30.8a4.875 4.875 0 0 1-2.2-3.7l.1-20V44.8c0-1.4 1-1.9 2.2-1.2l8.1 4.7 7.8 4.5 1.8 1 11.7 6.8 1.6.9 5.8 3.4 16.5 9.5a4.33 4.33 0 0 1 2.4 3.7z" fill="#000"/><path d="M94.51 141.17a2.35 2.35 0 0 1-1.14-.35L40 110a5.136 5.136 0 0 1-2.33-3.92l.1-20V44.8a1.73 1.73 0 0 1 .75-1.59 1.84 1.84 0 0 1 1.83.17l15.9 9.2 1.79 1 19.11 11.1 16.49 9.5a4.54 4.54 0 0 1 2.53 3.92L96 139.4a1.712 1.712 0 0 1-.8 1.6c-.21.117-.449.176-.69.17zM39.19 43.54a.78.78 0 0 0-.44.11 1.24 1.24 0 0 0-.5 1.15v41.3l-.1 20a4.639 4.639 0 0 0 2.08 3.48l53.39 30.8a1.38 1.38 0 0 0 1.34.17 1.268 1.268 0 0 0 .49-1.15l.2-61.3a4.08 4.08 0 0 0-2.25-3.47l-16.52-9.51-5.81-3.4-1.59-.9L57.77 54 56 53l-15.91-9.2a1.73 1.73 0 0 0-.9-.26z" fill="#000"/><path d="m128.3 59.8-.2 71.2-29.9 17.6.2-71.2a3.92 3.92 0 0 0-.4-1.8L127.9 58a3.91 3.91 0 0 1 .4 1.8z" fill="#fff"/><path d="M98.2 148.85c-.04.01-.08.01-.12 0a.256.256 0 0 1-.13-.22l.2-71.2a3.72 3.72 0 0 0-.37-1.69.25.25 0 0 1 .09-.33l29.9-17.6a.27.27 0 0 1 .2 0 .24.24 0 0 1 .15.13c.294.593.442 1.248.43 1.91l-.2 71.2a.27.27 0 0 1-.12.22l-29.9 17.6a.304.304 0 0 1-.13-.02zm.12-73.15c.225.538.338 1.117.33 1.7l-.2 70.76 29.4-17.3.2-71.06a3.658 3.658 0 0 0-.26-1.44L98.32 75.7z" fill="#000"/><path d="M125.3 54.7 95.4 72.3l-62-35.8 29.9-17.6 62 35.8z" fill="#fff"/><path d="M95.4 72.55a.31.31 0 0 1-.13 0l-62-35.8a.26.26 0 0 1 0-.44l29.9-17.6a.28.28 0 0 1 .25 0l62 35.8a.26.26 0 0 1 .13.22.272.272 0 0 1-.12.22l-29.9 17.6a.31.31 0 0 1-.13 0zm-61.5-36L95.4 72l29.4-17.3-61.5-35.51-29.4 17.36z" fill="#000"/><path d="M127.9 58 98 75.6a7.14 7.14 0 0 0-2.6-3.3l29.9-17.6a5.439 5.439 0 0 1 2.6 3.3z" fill="#fff"/><path d="M98 75.85h-.08a.25.25 0 0 1-.15-.15 7 7 0 0 0-2.5-3.18.25.25 0 0 1-.12-.21.27.27 0 0 1 .12-.22l29.9-17.6a.25.25 0 0 1 .24 0 5.669 5.669 0 0 1 2.73 3.45.273.273 0 0 1-.11.29l-29.9 17.6a.31.31 0 0 1-.13.02zm-2.14-3.53a7.59 7.59 0 0 1 2.26 2.92l29.48-17.36a5.2 5.2 0 0 0-2.29-2.88L95.86 72.32z" fill="#000"/><path d="M95.4 72.3a6.19 6.19 0 0 1 2.9 5.1l-.2 71.2c0 1.9-1.3 2.6-3 1.7l-62-35.8a6.19 6.19 0 0 1-2.9-5.1l.2-71.2c0-1.9 1.3-2.6 3-1.7l62 35.8zm-1.7 69.1.2-62a5.42 5.42 0 0 0-2.5-4.3L37.5 44c-1.4-.8-2.5-.2-2.5 1.4l-.2 62a5.419 5.419 0 0 0 2.5 4.3l53.9 31.1c1.4.8 2.5.2 2.5-1.4z" fill="#fff"/><path d="M96.47 150.94a3.224 3.224 0 0 1-1.49-.42l-62-35.8a6.48 6.48 0 0 1-3-5.33l.2-71.19a2.33 2.33 0 0 1 .94-2.09 2.47 2.47 0 0 1 2.43.17l62 35.8a6.47 6.47 0 0 1 3 5.33l-.2 71.19a2.306 2.306 0 0 1-.94 2.09c-.284.168-.61.255-.94.25zM32 36.36a1.31 1.31 0 0 0-.69.18 1.829 1.829 0 0 0-.7 1.66l-.2 71.2a5.92 5.92 0 0 0 2.77 4.88l62 35.8a1.951 1.951 0 0 0 1.92.18 1.831 1.831 0 0 0 .7-1.66l.2-71.2a5.921 5.921 0 0 0-2.77-4.88l-62-35.8a2.62 2.62 0 0 0-1.23-.36zm60.31 107a2.675 2.675 0 0 1-1.27-.38l-53.91-31.1a5.687 5.687 0 0 1-2.62-4.52l.2-62a2 2 0 0 1 .83-1.81 2 2 0 0 1 2 .19l53.9 31.1a5.66 5.66 0 0 1 2.63 4.52l-.2 62a1.997 1.997 0 0 1-.83 1.81c-.208.13-.445.209-.69.23l-.04-.04zm-56-99.5a1 1 0 0 0-.52.13 1.49 1.49 0 0 0-.58 1.37l-.2 62a5.176 5.176 0 0 0 2.37 4.08l53.91 31.1a1.547 1.547 0 0 0 1.54.19 1.492 1.492 0 0 0 .58-1.37l.2-62a5.211 5.211 0 0 0-2.37-4.08l-53.9-31.1a2.1 2.1 0 0 0-.99-.28l-.04-.04z" fill="#000"/><path d="M47.1 87.2c.1.1.1.1.2.1s.1-.1.1-.2v-1.4a.369.369 0 0 0-.1-.3l-2.2-2.6 2.2-.1c.1 0 .1-.1.1-.2v-1.4a.369.369 0 0 0-.1-.3c-.1-.1-.1-.1-.2-.1l-4.3.4c-.1 0-.1.1-.1.2v.3a.37.37 0 0 0 .1.3l4.3 5.3zm.5 2.8v.2a.22.22 0 0 0 .2.2l1.1.6c.1.1.2 0 .2-.1l3.2-9.6v-.2a.22.22 0 0 0-.2-.2l-1.1-.5c-.1-.1-.2 0-.2.1L47.6 90zm12.2 2.3c0-.1 0-.1-.1-.2l-.2-.2-1.3-.9c-.2 0-.2 0-.3.1-.1.5-.3.8-.6.9a1.52 1.52 0 0 1-1.2-.3 3.86 3.86 0 0 1-1.5-1.6 6.18 6.18 0 0 1-.5-2.5v-.1a2.4 2.4 0 0 1 .6-1.9c.3-.3.8-.3 1.5.1.453.224.834.57 1.1 1 .241.472.41.977.5 1.5 0 .1.1.3.2.3l1.4.8h.2a.35.35 0 0 0 .1-.2 6.74 6.74 0 0 0-3.5-5.4c-2.3-1.3-3.9-.3-3.9 2.5v.1a7.92 7.92 0 0 0 1 4 8.34 8.34 0 0 0 2.9 3 3.27 3.27 0 0 0 2.4.5c.6.1 1-.5 1.2-1.5zm9.5 8.5a.76.76 0 0 0 .2.4l2.3 1.3c1.4.8 2.4.9 3.2.5.8-.4 1-1.4 1-2.7v-.1a7.82 7.82 0 0 0-1-3.9 9.19 9.19 0 0 0-3.1-3.1l-2.3-1.3c-.1-.1-.2 0-.2.1l-.1 8.8zm7.6 4.4a.76.76 0 0 0 .2.4l5 2.9c.1.1.2 0 .2-.1V107a.756.756 0 0 0-.2-.4l-3.3-1.9v-2.1l2.5 1.4c.1.1.2 0 .2-.1v-1.2a.756.756 0 0 0-.2-.4l-2.5-1.4V99l3.1 1.8c.1.1.2 0 .2-.1v-1.3a.76.76 0 0 0-.2-.4l-4.8-2.8c-.1-.1-.2 0-.2.1v8.9zm6 2.5a.37.37 0 0 0 .1.3c.1.1.1.1.2.1l4.3-.4c.1 0 .1-.1.1-.2v-.3a.368.368 0 0 0-.1-.3l-4.3-5.3c-.1-.1-.1-.1-.2-.1s-.1.1-.1.2v1.4a.37.37 0 0 0 .1.3l2.2 2.6-2.2.1c-.1 0-.1.1-.1.2v1.4zm-18.6-9.4a2.8 2.8 0 0 0 3 .3c.7-.4 1.1-1.4 1.1-2.8v-.1a8 8 0 0 0-1.1-4 7.62 7.62 0 0 0-2.9-3c-2.4-1.4-4.1-.3-4.1 2.4v.1a8.62 8.62 0 0 0 1.1 4 6.69 6.69 0 0 0 2.9 3.1zm0-1.8a5.23 5.23 0 0 1-1.6-1.7 5.14 5.14 0 0 1-.6-2.5v-.1a2.16 2.16 0 0 1 .6-1.8c.4-.3.9-.3 1.6.1a4.36 4.36 0 0 1 1.6 1.7 5 5 0 0 1 .6 2.4v.1a2.16 2.16 0 0 1-.6 1.8c-.4.4-.9.3-1.6 0zm6.8 3.8v-5.7l.6.4a4.44 4.44 0 0 1 1.8 1.8 4.71 4.71 0 0 1 .5 2.4v.1a2.158 2.158 0 0 1-.6 1.8c-.4.3-.9.2-1.8-.3l-.5-.5zM35.62 135.41l7.49 4.33v10.05l-7.49-4.32v-10.06z" fill="#fff"/><path d="M43.11 150a.27.27 0 0 1-.12 0l-7.49-4.33a.24.24 0 0 1-.13-.21v-10.05a.229.229 0 0 1 .13-.21.231.231 0 0 1 .25 0l7.49 4.32a.249.249 0 0 1 .12.22v10a.247.247 0 0 1-.12.22.272.272 0 0 1-.13.04zm-7.24-4.72 7 4v-9.48l-7-4v9.48z" fill="#000"/><path d="m36.65 137.35 5.48 3.17v4.81l-5.48-3.16v-4.82z" fill="#fff"/><path d="M42.13 145.58h-.12l-5.48-3.17a.232.232 0 0 1-.13-.21v-4.82a.23.23 0 0 1 .13-.21.231.231 0 0 1 .25 0l5.48 3.16a.249.249 0 0 1 .12.22v4.81a.24.24 0 0 1-.12.22.285.285 0 0 1-.13 0zM36.9 142l5 2.88v-4.24l-5-2.87V142z" fill="#000"/></svg>